PathFileType	4	(X/Y/Z)	OpenSim_Sub01_CSStiffKnee_Gyro.trc
DataRate	CameraRate	NumFrames	NumMarkers	Units	OrigDataRate	OrigDataStartFrame	OrigNumFrames
100	100	17	8	m	100	1	5381
Frame#	Time	torso_imu_offset_imu	pelvis_imu_offset_imu	tibia_r_imu_offset_imu	femur_r_imu_offset_imu	tibia_l_imu_offset_imu	femur_l_imu_offset_imu	toes_r_imu_offset_imu	toes_l_imu_offset_imu
				X1	Y1	Z1	X2	Y2	Z2	X3	Y3	Z3	X4	Y4	Z4	X5	Y5	Z5	X6	Y6	Z6	X7	Y7	Z7	X8		Y8	Z8	

1	0	0.01338206	0.00894820	-0.00970543	0.00691394	0.00143137	-0.00508687	0.01828209	0.00482988	-0.00800374	0.00682848	0.01339496	-0.00990612	0.00219835	0.00789352	0.00803228	0.01316453	-0.00046625	0.00419373	-0.00382669	0.00466152	0.00337942	-0.00249877	0.01044109	-0.00028776
2	0.01000000	0.01444697	0.00817225	-0.00986211	0.00886780	0.00023835	-0.00462834	0.01688146	0.00672007	-0.00730233	0.00460021	0.01128097	-0.01051793	0.00692426	0.00630136	0.00730171	0.01562317	0.00251643	0.00438946	-0.00384416	0.00467536	0.00374619	-0.00250004	0.01144589	-0.00060024
3	0.02000000	0.01455186	0.00888183	-0.00924976	0.00943070	-0.00047781	-0.00345035	0.01606128	0.00923679	-0.00737011	0.00272666	0.01000756	-0.01031075	0.01031820	0.00655816	0.00682889	0.01430859	0.00338070	0.00534027	-0.00442770	0.00448796	0.00403057	-0.00226557	0.01264178	0.00001855
4	0.03000000	0.01426728	0.01003510	-0.00830042	0.00889796	-0.00114537	-0.00191067	0.01585022	0.01095314	-0.00765501	0.00057724	0.00978240	-0.00937430	0.01238960	0.00810778	0.00652405	0.01208434	0.00247294	0.00606157	-0.00517902	0.00418587	0.00434356	-0.00222422	0.01359229	0.00083724
5	0.04000000	0.01422350	0.01048740	-0.00752957	0.00772075	-0.00224648	-0.00043560	0.01610827	0.01046698	-0.00756026	-0.00254220	0.01064390	-0.00790274	0.01334047	0.01012227	0.00623439	0.01197373	0.00042990	0.00556459	-0.00562206	0.00389481	0.00479394	-0.00277422	0.01386272	0.00104618
6	0.05000000	0.01437263	0.01023163	-0.00724359	0.00634583	-0.00365877	0.00055107	0.01647106	0.00812698	-0.00715209	-0.00485029	0.01180200	-0.00658627	0.01325741	0.01177312	0.00570413	0.01373108	-0.00174825	0.00406098	-0.00569265	0.00385588	0.00523517	-0.00348562	0.01354396	0.00051148
7	0.06000000	0.01426830	0.00993102	-0.00762432	0.00521665	-0.00490427	0.00062834	0.01644391	0.00531331	-0.00688699	-0.00311723	0.01198185	-0.00640392	0.01216061	0.01223424	0.00461858	0.01518707	-0.00285066	0.00247025	-0.00556940	0.00437707	0.00537092	-0.00344259	0.01303654	-0.00050155
8	0.07000000	0.01381149	0.01009325	-0.00859434	0.00463229	-0.00571485	-0.00035787	0.01596059	0.00311912	-0.00704014	0.00336111	0.01073514	-0.00754392	0.01042805	0.01126157	0.00305901	0.01519090	-0.00244848	0.00165406	-0.00538131	0.00551341	0.00506782	-0.00229428	0.01265117	-0.00161467
9	0.08000000	0.01368959	0.01085959	-0.00950134	0.00456988	-0.00630086	-0.00196621	0.01591455	0.00196749	-0.00747100	0.00961160	0.00947184	-0.00842161	0.00923793	0.00990962	0.00199178	0.01491983	-0.00186388	0.00232453	-0.00513964	0.00675359	0.00456050	-0.00096445	0.01248914	-0.00220915
10	0.09000000	0.01459428	0.01226748	-0.00969962	0.00496328	-0.00691324	-0.00366956	0.01715976	0.00212512	-0.00796641	0.01048105	0.00965801	-0.00741673	0.00967215	0.00929700	0.00241849	0.01565304	-0.00244667	0.00498279	-0.00484622	0.00756397	0.00412587	-0.00045620	0.01261364	-0.00174397
11	0.10000000	0.01616304	0.01379420	-0.00941485	0.00574973	-0.00755350	-0.00488717	0.01880163	0.00318020	-0.00814391	0.00688724	0.01074291	-0.00501795	0.01070075	0.00938989	0.00446773	0.01646971	-0.00338671	0.00816082	-0.00456962	0.00797133	0.00396347	-0.00081094	0.01298654	-0.00081622
12	0.11000000	0.01741386	0.01458891	-0.00938506	0.00686740	-0.00807628	-0.00500870	0.01892229	0.00432164	-0.00752485	0.00332112	0.01099118	-0.00295491	0.01005531	0.00947592	0.00774866	0.01515501	-0.00260721	0.00923542	-0.00441771	0.00833063	0.00422485	-0.00150398	0.01350969	-0.00068986
13	0.12000000	0.01787826	0.01429364	-0.01000079	0.00804357	-0.00839354	-0.00386427	0.01734238	0.00493160	-0.00639317	0.00253415	0.00975384	-0.00229886	0.00702146	0.00911163	0.01092243	0.01029011	0.00036066	0.00695943	-0.00447209	0.00848615	0.00456484	-0.00226823	0.01401861	-0.00167137
14	0.13000000	0.01825139	0.01365956	-0.01086233	0.00853484	-0.00854943	-0.00226763	0.01779118	0.00483498	-0.00673726	0.00329354	0.00883993	-0.00261623	0.00438811	0.00847315	0.01054991	0.00226974	0.00236142	0.00318916	-0.00475467	0.00713328	0.00353135	-0.00342770	0.01420258	-0.00191156
15	0.14000000	0.01929587	0.01349560	-0.01149553	0.00769529	-0.00866210	-0.00114180	0.02383784	0.00403643	-0.01077160	0.00399102	0.01011417	-0.00326976	0.00483795	0.00792106	0.00400444	-0.00799459	0.00022296	0.00003922	-0.00528305	0.00306676	-0.00018236	-0.00524706	0.01371734	0.00043345
16	0.15000000	0.02084513	0.01365773	-0.01176085	0.00654294	-0.00942936	-0.00116426	0.03193903	0.00377747	-0.02066427	0.00470756	0.01258234	-0.00362161	0.00506399	0.00885467	-0.00001939	-0.01678913	-0.00433577	-0.00204475	-0.00611422	-0.00228786	-0.00483647	-0.00655298	0.01207660	0.00414159
17	0.16000000	0.02218545	0.01344214	-0.01171635	0.00707047	-0.01188475	-0.00286424	0.03437055	0.00602016	-0.03853132	0.00652551	0.01357055	-0.00304535	-0.00174326	0.01327547	0.01379287	-0.01876511	-0.00672356	-0.00359744	-0.00732668	-0.00595877	-0.00690342	-0.00533144	0.00871555	0.00618916
